<?xml version="1.0" standalone="no"?>
<!DOCTYPE svg PUBLIC "-//W3C//DTD SVG 20010904//EN"
 "http://www.w3.org/TR/2001/REC-SVG-20010904/DTD/svg10.dtd">
<svg version="1.0" xmlns="http://www.w3.org/2000/svg"
 width="3600.000000pt" height="5400.000000pt" viewBox="0 0 3600.000000 5400.000000"
 preserveAspectRatio="xMidYMid meet">

<g transform="translate(0.000000,5400.000000) scale(0.100000,-0.100000)"
fill="#000000" stroke="none">
<path d="M19070 40541 c0 -6 4 -13 10 -16 6 -3 7 1 4 9 -7 18 -14 21 -14 7z"/>
<path d="M14905 34746 c-76 -24 -227 -109 -282 -159 -92 -85 -263 -319 -333
-458 -30 -59 -123 -350 -164 -514 -13 -55 -39 -188 -58 -295 l-33 -195 -1
-360 c0 -426 -5 -464 -93 -730 -110 -336 -252 -1078 -281 -1465 -6 -80 -15
-185 -21 -235 -35 -310 -43 -404 -48 -617 l-6 -238 -101 -102 c-122 -126 -290
-340 -306 -390 -10 -34 -8 -42 13 -75 36 -56 49 -81 49 -96 0 -7 -24 -53 -53
-103 -65 -108 -107 -210 -107 -258 0 -42 28 -66 76 -66 41 0 64 -9 64 -24 0
-7 -33 -78 -73 -157 -98 -192 -119 -297 -70 -351 30 -33 79 -23 180 38 94 57
176 87 277 99 l54 7 -43 -83 c-51 -98 -134 -303 -164 -406 -33 -110 -69 -341
-81 -523 -6 -91 -20 -241 -30 -335 -40 -358 -50 -628 -30 -850 13 -139 55
-361 75 -391 19 -29 59 -40 91 -25 14 6 29 9 34 6 18 -11 63 -172 80 -287 12
-81 25 -130 38 -147 27 -38 116 -88 197 -113 38 -11 82 -25 97 -30 30 -11 65
-53 102 -122 l24 -45 -5 -398 c-6 -398 -6 -398 17 -451 41 -94 105 -130 422
-237 296 -99 423 -114 587 -69 29 9 54 14 55 12 1 -2 9 -28 19 -58 10 -30 35
-80 54 -110 63 -96 233 -309 266 -332 47 -34 154 -37 242 -8 l67 22 23 -23
c13 -13 51 -76 85 -139 34 -63 77 -130 96 -147 38 -37 69 -41 165 -23 89 17
277 15 339 -3 80 -24 245 -124 554 -337 67 -46 107 -51 210 -24 77 20 106 15
185 -31 67 -40 122 -90 209 -193 66 -77 242 -209 291 -218 20 -4 43 -12 51
-19 9 -9 43 -13 90 -13 47 0 81 4 90 13 8 7 31 15 51 19 49 9 225 141 291 218
87 103 142 153 209 193 79 46 108 51 185 31 103 -27 143 -22 210 24 309 213
474 313 554 337 62 18 250 20 339 3 96 -18 127 -14 165 23 19 17 62 84 96 147
34 63 72 126 85 139 l23 23 67 -22 c88 -29 195 -26 242 8 33 23 203 236 266
332 19 30 44 80 54 110 10 30 18 56 19 58 1 2 26 -3 55 -12 164 -45 291 -30
586 69 317 106 382 143 423 237 23 53 23 53 17 451 l-5 398 24 45 c37 69 72
111 102 122 15 5 59 19 97 30 81 25 170 75 197 113 13 17 26 66 38 147 17 115
62 276 80 287 5 3 20 0 34 -6 32 -15 72 -4 91 25 8 12 26 81 40 152 59 304 60
591 5 1084 -10 96 -24 249 -30 340 -12 182 -48 413 -81 523 -30 103 -113 308
-164 406 l-43 83 54 -7 c101 -12 183 -42 277 -99 101 -61 150 -71 180 -38 49
54 28 159 -70 351 -40 79 -73 150 -73 157 0 15 23 24 64 24 48 0 76 24 76 66
0 48 -42 150 -107 258 -29 50 -53 96 -53 103 0 15 13 40 49 96 21 33 23 41 13
75 -16 50 -184 264 -306 390 l-101 102 -6 243 c-3 133 -11 285 -17 337 -24
190 -42 368 -52 510 -11 146 -85 656 -120 825 -55 264 -116 507 -165 654 -83
249 -89 292 -89 716 l-1 360 -33 195 c-40 230 -64 333 -138 574 -61 199 -83
247 -174 386 -161 245 -251 335 -416 417 -106 53 -119 57 -196 60 l-83 4 -141
-158 c-78 -87 -164 -185 -191 -218 -57 -69 -311 -332 -600 -624 -109 -109
-274 -278 -368 -375 -93 -97 -214 -213 -268 -258 -54 -45 -122 -109 -151 -141
l-53 -60 -39 10 c-21 6 -82 22 -134 37 -130 35 -246 54 -440 71 -91 9 -189 20
-219 25 -30 6 -175 10 -321 10 -146 0 -291 -4 -321 -10 -30 -5 -128 -16 -219
-25 -194 -17 -310 -36 -440 -71 -52 -15 -113 -31 -134 -37 l-39 -10 -53 60
c-29 32 -97 96 -151 141 -54 45 -174 161 -268 258 -93 97 -258 265 -365 372
-279 281 -545 557 -603 627 -27 33 -113 131 -191 217 l-141 157 -65 0 c-36 0
-83 -6 -105 -13z m42 -924 c32 -31 109 -104 171 -161 66 -61 136 -136 167
-180 29 -42 81 -107 114 -146 143 -165 176 -209 272 -370 56 -93 122 -197 146
-230 84 -117 120 -171 157 -238 21 -38 69 -105 107 -149 38 -44 69 -86 69 -93
0 -7 -25 -23 -55 -35 -97 -39 -378 -230 -514 -349 -194 -168 -498 -478 -570
-579 -13 -19 -27 -30 -32 -25 -36 37 -204 790 -243 1093 -43 329 -49 696 -17
925 30 216 52 305 106 432 26 59 49 120 52 135 3 15 7 28 9 28 2 0 29 -26 61
-58z m6176 30 c3 -15 26 -76 52 -135 54 -127 76 -216 106 -432 25 -179 28
-370 9 -650 -19 -269 -30 -345 -132 -849 -39 -193 -121 -502 -137 -519 -5 -5
-19 6 -32 25 -72 101 -376 411 -570 579 -136 119 -417 310 -514 349 -30 12
-55 28 -55 35 0 7 31 49 69 93 38 44 86 111 107 149 38 68 73 122 159 242 25
35 91 138 146 230 94 158 127 201 270 366 33 39 85 104 114 146 31 44 101 119
167 180 62 57 138 129 168 160 30 32 58 57 61 58 4 1 9 -12 12 -27z m-2868
-878 c18 -4 20 -12 17 -78 -4 -90 31 -306 63 -391 43 -113 102 -231 195 -389
120 -203 121 -211 51 -354 -105 -213 -137 -357 -92 -413 16 -20 29 -23 115
-27 93 -4 97 -6 122 -35 38 -46 80 -135 94 -201 15 -71 3 -142 -46 -294 -43
-131 -130 -475 -143 -567 -6 -38 -17 -182 -26 -320 -16 -254 -25 -327 -44
-379 -10 -25 -15 -28 -49 -24 -20 3 -57 10 -82 16 -181 44 -247 52 -430 52
-183 0 -249 -8 -430 -52 -25 -6 -62 -13 -82 -16 -34 -4 -39 -1 -49 24 -19 52
-28 125 -44 379 -9 138 -20 282 -26 320 -13 92 -100 436 -143 567 -49 152 -61
223 -46 294 14 66 56 155 94 201 25 29 29 31 122 35 86 4 99 7 115 27 45 56
13 200 -92 413 -70 143 -69 151 51 354 93 158 152 276 195 389 32 85 67 301
63 391 -2 59 0 74 12 77 22 6 492 7 515 1z m-574 -31 c5 -172 -13 -337 -46
-415 -8 -21 -16 -41 -17 -45 -8 -42 -95 -210 -173 -337 -133 -216 -136 -235
-46 -426 35 -74 70 -160 78 -190 17 -62 20 -147 6 -161 -6 -6 -52 -12 -104
-15 -120 -6 -119 -6 -114 -14 2 -4 -8 -20 -23 -37 -87 -98 -123 -257 -88 -390
8 -29 13 -53 10 -53 -2 0 5 -20 16 -45 11 -25 20 -49 20 -53 0 -4 9 -36 21
-71 11 -35 18 -70 15 -77 -3 -8 0 -14 5 -14 6 0 9 -9 6 -20 -3 -11 -2 -20 2
-20 8 0 60 -204 80 -310 10 -52 24 -224 36 -440 5 -85 16 -217 20 -230 20 -70
27 -90 36 -96 8 -5 8 -9 0 -14 -22 -13 64 -10 124 5 194 47 266 56 456 56 192
0 240 -6 434 -52 77 -18 169 -24 144 -9 -8 5 -8 9 0 14 9 6 16 26 36 96 4 13
15 145 20 230 12 216 26 388 36 440 19 100 72 305 79 308 4 2 6 12 3 22 -3 11
0 20 6 20 5 0 8 7 5 15 -3 8 4 43 15 77 12 35 21 66 21 70 0 4 9 28 20 53 11
25 18 45 16 45 -3 0 2 24 10 53 35 133 -1 292 -88 390 -15 17 -25 33 -23 37 5
8 6 8 -114 14 -52 3 -98 9 -103 14 -14 14 -13 91 1 147 15 60 18 66 71 180 67
142 82 187 77 221 -7 40 -54 137 -117 239 -47 76 -160 294 -164 318 -1 7 -10
30 -20 52 -27 63 -45 175 -46 292 -2 156 -3 146 23 140 20 -5 108 -15 297 -33
36 -3 85 -10 110 -15 25 -5 59 -11 75 -14 75 -12 241 -57 274 -74 10 -6 24
-25 30 -43 7 -18 17 -41 22 -50 5 -10 9 -23 9 -30 0 -7 10 -23 23 -34 12 -12
40 -46 62 -75 21 -30 60 -72 86 -94 25 -22 44 -44 41 -50 -3 -5 -2 -7 2 -4 7
6 126 -51 152 -72 7 -5 16 -9 20 -8 5 1 18 -1 29 -6 104 -42 136 -56 175 -77
25 -14 46 -31 46 -39 1 -8 2 -19 3 -25 0 -7 13 -11 29 -11 39 1 209 -84 265
-134 7 -6 24 -18 38 -27 153 -100 264 -190 412 -334 27 -25 51 -47 55 -49 12
-3 67 -71 67 -83 1 -6 6 -10 13 -8 16 3 163 -148 156 -160 -3 -5 -2 -7 3 -6 4
2 10 -1 13 -5 3 -4 29 -33 58 -63 28 -31 55 -68 59 -82 7 -32 42 -72 63 -72
20 0 112 -100 146 -158 15 -26 39 -63 54 -82 15 -19 53 -73 85 -120 31 -47 67
-96 80 -110 12 -14 25 -32 28 -40 4 -8 18 -33 32 -55 50 -80 95 -176 89 -187
-4 -6 -3 -8 4 -4 6 3 14 -4 18 -16 4 -13 23 -57 43 -98 19 -41 34 -78 33 -82
-1 -5 3 -8 9 -8 6 0 8 -7 5 -16 -3 -8 -2 -13 3 -9 5 3 15 -12 21 -32 7 -21 16
-42 20 -48 5 -5 9 -13 9 -18 0 -4 8 -21 16 -37 9 -17 12 -30 8 -30 -5 0 -3 -4
3 -8 13 -8 117 -202 108 -202 -3 0 4 -12 15 -26 12 -15 21 -35 21 -45 0 -9 5
-19 11 -21 5 -2 11 -11 12 -20 2 -9 8 -23 15 -31 12 -14 30 -94 34 -152 1 -16
7 -33 13 -37 12 -8 14 -516 3 -588 -4 -25 -10 -63 -13 -85 -3 -22 -25 -119
-50 -215 -24 -96 -46 -188 -49 -205 -3 -16 -17 -68 -31 -114 -14 -47 -25 -93
-25 -103 0 -11 -4 -17 -8 -14 -4 2 -8 -3 -9 -12 -1 -20 -6 -44 -39 -182 -14
-58 -31 -123 -38 -145 -7 -22 -21 -65 -31 -95 -9 -30 -23 -68 -30 -85 -8 -16
-25 -69 -40 -117 -14 -49 -29 -88 -33 -88 -4 0 -8 -10 -9 -23 -1 -27 -91 -219
-107 -229 -6 -4 -7 -8 -2 -8 8 0 -15 -42 -40 -70 -7 -8 -30 -34 -50 -58 -20
-23 -67 -66 -103 -94 -36 -29 -69 -57 -72 -62 -4 -5 -12 -5 -19 -1 -9 5 -11 4
-6 -3 4 -8 -3 -16 -18 -22 -14 -5 -26 -14 -26 -20 0 -5 -6 -10 -14 -10 -8 0
-16 -3 -18 -7 -3 -7 -80 -61 -103 -73 -5 -3 -29 -18 -53 -33 -40 -26 -92 -50
-101 -47 -2 1 -7 -2 -10 -7 -3 -5 -36 -30 -72 -55 -36 -26 -66 -54 -66 -62 0
-9 2 -14 5 -11 9 9 42 -16 36 -27 -4 -7 -3 -8 4 -4 13 8 64 -3 58 -13 -3 -4 3
-7 12 -8 32 -2 212 -69 205 -77 -4 -4 0 -4 8 -1 9 3 22 -1 29 -10 7 -8 16 -15
21 -15 5 0 35 -17 66 -37 103 -66 212 -189 209 -236 -1 -12 2 -25 7 -28 16
-12 -23 -154 -69 -248 -26 -53 -51 -97 -56 -99 -4 -2 -8 -9 -8 -16 0 -13 -58
-127 -69 -136 -3 -3 -26 -45 -51 -95 -24 -49 -48 -93 -53 -96 -5 -3 -8 -10 -8
-15 2 -17 -40 -104 -50 -104 -6 0 -7 -4 -4 -10 3 -5 1 -10 -4 -10 -6 0 -11 -7
-11 -16 0 -9 -5 -12 -12 -8 -7 5 -8 3 -4 -5 9 -14 -22 -53 -35 -46 -4 3 -11 0
-15 -6 -4 -8 -3 -9 4 -5 18 11 14 -3 -9 -35 -11 -16 -25 -27 -30 -24 -5 4 -6
-1 -3 -9 3 -9 1 -16 -5 -16 -6 0 -10 -3 -9 -7 5 -16 -74 -133 -84 -127 -7 5
-8 2 -4 -5 5 -7 -7 -35 -28 -67 -20 -29 -36 -56 -36 -59 1 -15 -154 -204 -163
-198 -6 3 -7 1 -3 -5 7 -12 4 -17 -51 -77 -17 -19 -48 -55 -68 -80 -21 -25
-42 -42 -48 -38 -6 3 -7 1 -3 -6 7 -10 -46 -83 -56 -77 -1 1 -13 -8 -25 -21
-12 -13 -20 -23 -17 -23 4 0 -55 -53 -84 -75 -7 -5 -22 -18 -33 -28 -27 -24
-109 -76 -194 -122 -91 -48 -165 -97 -189 -124 -11 -12 -25 -21 -32 -21 -7 0
-14 -3 -16 -7 -6 -15 -90 -53 -100 -46 -7 3 -8 1 -4 -5 5 -8 0 -12 -13 -12
-10 0 -21 -3 -23 -7 -4 -9 -123 -53 -153 -57 -11 -2 -34 -10 -50 -19 -17 -8
-49 -19 -70 -23 -52 -10 -44 -9 -90 -22 -22 -6 -98 -21 -170 -33 -71 -12 -193
-36 -270 -55 -77 -18 -162 -36 -190 -40 -27 -3 -87 -15 -133 -26 -53 -12 -120
-19 -190 -19 -134 -1 -134 -1 -128 10 14 21 -20 28 -72 15 -44 -11 -60 -11
-105 0 -51 13 -85 6 -71 -15 6 -11 6 -11 -128 -10 -70 0 -137 7 -190 19 -46
11 -105 23 -133 26 -27 4 -113 22 -190 40 -77 19 -198 43 -270 55 -71 12 -148
27 -170 33 -46 13 -38 12 -90 22 -21 4 -53 15 -70 23 -16 9 -39 17 -50 19 -30
4 -149 48 -153 57 -2 4 -13 7 -23 7 -13 0 -18 4 -13 12 4 6 3 8 -4 5 -10 -7
-86 28 -110 51 -7 6 -17 12 -20 12 -4 0 -19 10 -32 23 -43 37 -88 67 -168 109
-90 48 -173 100 -200 125 -10 10 -31 27 -46 37 -36 26 -79 66 -70 66 4 0 -6
10 -22 23 -47 36 -84 81 -79 95 3 7 1 11 -4 8 -5 -3 -34 25 -66 63 -31 39 -59
71 -63 73 -9 4 -199 250 -200 261 -1 4 -18 32 -38 61 -21 32 -33 60 -28 67 4
7 3 10 -4 5 -9 -5 -84 102 -88 127 -1 4 -3 10 -4 15 -1 4 -2 11 -1 15 1 5 -3
6 -8 3 -5 -4 -19 7 -30 23 -23 32 -27 46 -9 35 7 -4 8 -3 4 5 -4 6 -11 9 -15
6 -12 -7 -44 32 -36 45 3 6 1 9 -7 8 -7 -2 -12 3 -10 10 1 6 -3 12 -9 12 -5 0
-7 5 -4 10 3 6 2 10 -4 10 -9 0 -50 79 -55 106 -1 7 -6 18 -12 25 -5 8 -16 28
-24 44 -8 17 -40 75 -71 130 -31 55 -60 111 -64 125 -4 14 -11 27 -15 30 -4 3
-28 48 -54 101 -45 94 -85 236 -69 248 4 3 8 15 7 26 0 36 35 89 105 155 38
36 87 74 110 85 22 11 41 23 41 28 0 4 6 7 14 7 7 0 19 7 26 15 7 9 19 14 27
11 7 -3 13 -2 13 3 0 4 37 21 83 36 45 15 88 32 94 37 7 6 20 8 28 4 9 -3 14
-2 11 3 -7 11 41 24 56 15 7 -4 8 -3 4 4 -7 12 27 35 37 26 3 -3 3 3 0 14 -3
11 -33 40 -66 63 -34 24 -65 47 -68 52 -3 5 -8 8 -10 7 -9 -3 -61 21 -101 47
-24 15 -47 30 -53 33 -45 24 -84 54 -79 61 3 5 -2 6 -10 3 -9 -3 -16 -1 -16 5
0 6 -7 11 -15 11 -8 0 -15 5 -15 10 0 6 -12 15 -26 20 -15 6 -22 14 -18 22 5
7 3 8 -6 3 -7 -4 -15 -4 -19 1 -3 5 -37 34 -74 63 -77 61 -187 186 -187 212 0
10 -5 21 -10 24 -15 9 -102 196 -104 222 0 13 -4 23 -8 23 -4 0 -19 39 -33 88
-15 48 -32 101 -40 117 -7 17 -21 55 -30 85 -9 30 -21 69 -27 85 -19 56 -79
307 -81 337 -1 9 -5 14 -9 12 -4 -3 -8 3 -8 14 0 10 -11 56 -25 103 -14 46
-28 96 -30 111 -3 15 -25 108 -50 207 -25 99 -47 197 -50 218 -2 21 -7 49 -11
63 -13 47 -17 538 -4 573 7 18 14 48 16 67 11 87 25 145 41 163 10 11 12 17 5
13 -11 -7 -11 -4 0 13 7 12 16 21 20 21 5 0 8 6 8 14 0 19 129 269 143 278 7
4 9 8 4 8 -4 0 0 15 10 33 9 17 18 34 18 37 1 3 7 19 14 35 6 17 16 42 22 57
6 15 16 25 22 21 5 -3 7 -1 3 5 -3 6 11 46 33 89 21 43 42 88 45 101 4 12 12
19 18 16 7 -4 8 -2 4 4 -6 11 39 106 89 187 14 22 29 49 34 60 6 11 25 36 43
55 18 20 33 38 34 40 1 9 58 95 100 150 22 30 53 76 68 102 34 58 126 158 146
158 21 0 55 40 63 71 4 14 31 52 62 84 30 33 55 62 55 65 0 13 161 170 172
168 7 -2 12 2 13 8 0 12 60 85 68 85 3 1 28 22 55 47 141 135 302 271 302 255
0 -4 4 -3 8 2 11 15 83 70 112 85 14 7 27 16 30 20 23 33 223 134 263 133 15
0 28 4 28 11 1 6 2 17 3 25 0 8 21 25 46 39 39 21 71 35 175 77 11 5 24 7 29
6 4 -1 13 3 20 8 26 21 145 78 152 72 4 -3 5 -1 2 4 -3 6 16 28 41 50 26 22
65 64 86 94 22 29 50 63 62 75 13 11 23 27 23 34 0 7 4 20 9 30 5 9 15 32 22
50 6 18 20 37 30 43 33 17 199 62 274 74 17 3 50 9 75 14 25 5 72 12 105 15
206 19 291 28 294 32 11 11 31 2 32 -13z"/>
<path d="M15665 30296 c-30 -13 -55 -51 -55 -83 0 -24 47 -81 72 -88 25 -8 36
-12 183 -74 71 -30 147 -52 270 -77 93 -18 204 -43 245 -55 41 -11 96 -25 123
-31 26 -6 47 -14 47 -17 0 -4 9 -7 19 -8 36 -3 176 -64 216 -95 56 -44 110
-114 159 -206 129 -247 149 -279 195 -304 42 -22 45 -26 57 -87 22 -106 28
-182 55 -701 14 -275 5 -395 -47 -630 -9 -41 -18 -84 -19 -95 -2 -11 -4 -20
-5 -20 -1 0 -4 -13 -6 -30 -3 -16 -12 -64 -21 -105 -8 -41 -19 -93 -23 -115
-11 -53 -20 -75 -31 -75 -5 0 -9 -8 -9 -17 0 -17 -88 -221 -100 -233 -3 -3 -6
-13 -8 -23 -2 -9 -18 -50 -37 -89 -19 -40 -35 -81 -35 -91 0 -9 -7 -20 -15
-23 -18 -7 -12 -74 11 -131 8 -18 12 -39 8 -45 -4 -7 -3 -8 4 -4 6 3 16 -3 22
-14 30 -56 168 -77 270 -42 30 11 100 42 155 70 112 57 205 95 205 84 0 -4 4
-2 8 4 7 11 215 68 289 79 55 9 211 9 266 0 74 -11 282 -68 289 -79 4 -6 8 -8
8 -4 0 11 93 -27 205 -84 55 -28 125 -59 155 -70 102 -35 240 -14 270 42 6 11
16 17 22 14 7 -4 8 -3 4 4 -4 6 0 27 8 45 23 57 29 124 11 131 -8 3 -15 13
-15 22 0 10 -18 58 -41 108 -22 50 -45 100 -49 111 -5 11 -27 60 -50 109 -22
49 -40 97 -40 107 0 11 -4 19 -9 19 -11 0 -20 22 -31 75 -4 22 -15 76 -25 120
-9 44 -18 91 -20 105 -2 14 -4 25 -5 25 -1 0 -3 7 -5 15 -1 8 -10 53 -20 100
-40 197 -53 305 -50 440 4 247 26 654 41 765 26 194 23 186 76 214 38 20 52
36 79 90 18 36 51 98 74 136 22 39 49 88 60 110 22 46 73 113 118 155 47 43
197 112 241 109 5 0 12 4 15 9 3 5 26 14 51 20 25 6 86 21 135 35 50 14 144
35 210 47 150 27 189 38 300 85 143 60 149 62 173 70 28 8 72 65 72 94 0 33
-28 69 -64 81 -37 12 -59 6 -296 -81 l-145 -53 -143 2 c-123 1 -235 -11 -297
-32 -28 -9 -55 -20 -102 -43 -29 -13 -55 -24 -59 -23 -4 1 -10 -3 -13 -8 -3
-5 -41 -32 -84 -60 -84 -55 -154 -111 -195 -155 -44 -47 -112 -141 -112 -155
0 -13 -88 -194 -99 -202 -5 -4 -29 -75 -47 -138 -4 -13 22 -61 40 -74 6 -4 1
-44 -12 -105 -24 -110 -28 -152 -43 -448 -27 -555 -24 -628 31 -875 10 -47 21
-98 23 -115 14 -84 41 -215 53 -254 7 -24 11 -47 8 -52 -3 -5 0 -9 5 -9 6 0
11 -6 11 -14 0 -12 24 -67 96 -223 13 -28 24 -55 24 -59 0 -3 15 -38 33 -78
44 -93 60 -143 51 -157 -5 -8 -3 -9 6 -4 10 6 12 1 7 -26 -9 -54 -35 -107 -60
-124 -46 -30 -226 -19 -247 15 -4 6 -10 11 -14 9 -13 -4 -125 54 -120 63 3 4
-3 5 -12 1 -10 -4 -15 -2 -11 3 3 6 -3 10 -13 11 -10 1 -39 11 -64 23 -25 11
-59 23 -76 26 -17 4 -27 11 -23 17 3 5 2 7 -4 4 -5 -4 -43 3 -84 15 -262 74
-416 74 -678 0 -41 -12 -79 -19 -84 -15 -6 3 -7 1 -4 -4 4 -6 -6 -13 -23 -17
-17 -3 -51 -15 -76 -26 -25 -12 -54 -22 -64 -23 -10 -1 -16 -5 -13 -11 4 -5
-1 -7 -11 -3 -9 4 -14 3 -11 -2 3 -5 -5 -13 -17 -17 -13 -4 -34 -15 -48 -25
-14 -10 -34 -19 -45 -21 -11 -2 -23 -7 -26 -12 -25 -34 -265 -40 -244 -5 4 5
-1 9 -9 9 -17 0 -44 56 -53 109 -5 27 -3 32 7 26 9 -5 11 -4 6 4 -9 14 7 64
51 157 18 40 33 75 33 78 0 4 11 31 24 59 72 156 96 211 96 223 0 8 5 14 11
14 5 0 8 4 5 9 -3 5 1 28 8 52 8 24 22 85 31 134 10 50 23 122 31 160 67 351
76 474 54 745 -5 63 -12 198 -15 300 -6 209 -9 226 -53 429 -2 13 -1 26 4 30
5 3 17 18 26 33 16 24 16 30 2 80 -9 29 -20 58 -25 64 -5 6 -6 14 -2 18 4 4 2
10 -4 14 -12 8 -103 186 -103 202 0 10 -74 117 -107 155 -10 11 -40 38 -68 60
-27 22 -52 42 -55 45 -3 3 -36 25 -74 50 -38 24 -75 50 -82 57 -7 8 -16 13
-19 13 -3 -1 -29 10 -58 23 -129 61 -167 68 -372 71 -174 3 -183 5 -255 34
-85 34 -314 112 -326 112 -5 -1 -23 -7 -39 -14z"/>
<path d="M16400 29582 c-84 -12 -123 -24 -195 -58 -75 -36 -122 -54 -155 -59
-3 0 -21 -10 -40 -20 -19 -11 -44 -24 -55 -30 -11 -6 -21 -18 -23 -27 -6 -33
196 -250 300 -323 26 -18 44 -36 40 -40 -4 -5 -2 -5 5 -2 6 4 57 -15 114 -43
56 -27 112 -50 123 -50 21 0 97 -23 146 -43 14 -6 27 -11 30 -13 3 -1 15 -5
28 -9 12 -4 22 -11 22 -15 0 -4 20 -18 45 -31 25 -13 45 -27 45 -31 0 -5 4 -8
10 -8 11 0 132 -80 142 -94 8 -11 79 -16 73 -5 -3 4 -1 10 4 14 14 8 -51 213
-79 250 -4 6 -13 28 -20 50 -7 22 -16 44 -21 50 -5 5 -9 19 -9 30 0 12 -7 35
-15 52 -8 16 -16 38 -18 49 -2 15 -34 111 -65 194 -3 8 -4 19 -3 23 1 8 0 10
-53 72 -19 22 -32 43 -29 48 2 4 1 6 -4 5 -4 -1 -26 10 -48 24 -37 25 -146 60
-176 57 -8 -1 -61 -8 -119 -17z m100 -102 c116 -12 168 -32 187 -70 28 -56 6
-147 -49 -196 -31 -30 -108 -54 -169 -54 -142 0 -263 167 -203 281 17 34 66
59 104 54 14 -3 72 -9 130 -15z"/>
<path d="M16439 29403 c-14 -38 -3 -72 28 -84 55 -21 133 20 133 71 0 32 -17
40 -98 40 -48 0 -53 -2 -63 -27z"/>
<path d="M19393 29581 c-34 -10 -69 -24 -78 -31 -8 -7 -15 -9 -15 -4 0 5 -7
-2 -16 -14 -8 -12 -20 -19 -26 -16 -6 4 -9 3 -5 -2 3 -5 -10 -27 -29 -49 -53
-62 -54 -64 -53 -72 1 -4 0 -15 -3 -23 -3 -8 -18 -51 -33 -95 -15 -44 -29 -87
-33 -95 -3 -8 -4 -19 -3 -24 1 -4 -5 -19 -14 -32 -8 -13 -15 -33 -15 -44 0
-11 -4 -28 -10 -38 -20 -36 -93 -219 -110 -279 -11 -37 -15 -65 -9 -69 5 -3 7
-9 4 -13 -6 -11 65 -6 73 5 10 14 131 94 142 94 6 0 10 4 10 9 0 5 13 14 29
21 16 6 37 19 47 29 35 32 190 91 240 91 11 0 67 23 123 50 57 28 108 47 114
43 7 -3 9 -3 5 2 -4 4 10 19 32 34 104 70 315 295 308 329 -3 13 -118 89 -118
77 0 -8 -67 18 -155 60 -88 41 -114 47 -305 70 -19 3 -63 -4 -97 -14z m292
-95 c64 -27 86 -124 43 -195 -53 -88 -117 -131 -197 -131 -141 0 -240 87 -229
202 9 85 37 101 224 122 65 8 120 14 122 15 1 0 18 -5 37 -13z"/>
<path d="M19418 29423 c-28 -7 -23 -58 7 -82 77 -59 166 -19 136 62 -10 25
-14 27 -68 26 -32 -1 -66 -3 -75 -6z"/>
<path d="M15442 28772 c-11 -11 -24 -17 -28 -14 -4 4 -4 2 -1 -4 3 -6 -5 -27
-19 -47 -13 -20 -25 -39 -25 -42 0 -2 -9 -26 -20 -52 -58 -133 -89 -268 -89
-389 0 -85 47 -424 85 -610 23 -113 94 -309 126 -350 5 -6 25 -44 44 -83 19
-39 39 -71 45 -71 5 0 10 -8 10 -18 0 -10 8 -27 18 -38 10 -10 140 -80 288
-154 148 -74 271 -138 274 -141 3 -3 21 -11 40 -19 19 -7 46 -21 60 -30 14 -9
36 -21 50 -28 14 -6 32 -16 40 -21 8 -6 33 -18 55 -28 22 -9 43 -21 46 -26 3
-5 9 -8 13 -7 3 0 41 -15 82 -35 42 -20 82 -34 89 -31 16 6 8 44 -8 43 -12 -1
-88 33 -97 44 -3 3 -20 12 -37 20 -18 8 -33 17 -33 21 0 5 -8 8 -19 8 -10 0
-24 6 -30 14 -15 18 -16 254 -1 406 6 63 17 183 25 266 8 82 21 184 30 225 21
107 24 191 5 207 -11 10 -11 12 -1 6 9 -5 12 -3 7 5 -4 6 -11 9 -16 6 -5 -3
-11 -1 -14 4 -4 5 -14 8 -24 6 -9 -2 -22 -4 -28 -4 -6 -1 -29 -17 -51 -36 -22
-19 -43 -32 -47 -30 -3 3 -4 2 -1 -2 5 -6 -43 -53 -110 -108 -44 -36 -101 -58
-128 -49 -38 12 -177 170 -177 201 0 7 -3 13 -8 13 -4 0 -22 27 -40 60 -19 33
-31 60 -27 60 3 0 -1 10 -9 23 -15 22 -75 177 -81 210 -2 9 -6 21 -10 26 -7
13 -90 303 -100 354 -2 9 -18 44 -34 77 -17 33 -29 60 -26 60 7 0 -32 70 -54
99 l-18 24 -21 -21z"/>
<path d="M20514 28762 c-17 -25 -46 -80 -48 -92 -2 -8 -36 -83 -47 -104 -6
-10 -12 -26 -14 -35 -2 -9 -13 -52 -25 -96 -45 -163 -70 -246 -80 -265 -6 -11
-9 -20 -6 -20 7 0 -73 -202 -86 -217 -6 -7 -7 -13 -4 -13 4 0 -7 -27 -26 -60
-18 -33 -36 -60 -40 -60 -5 0 -8 -6 -8 -14 0 -29 -142 -189 -177 -200 -27 -9
-85 14 -128 49 -67 55 -115 102 -110 108 3 4 2 5 -1 2 -4 -2 -25 11 -47 30
-22 19 -47 36 -54 36 -7 1 -19 2 -25 3 -7 1 -19 -3 -27 -8 -8 -6 -16 -10 -19
-8 -18 9 -16 -128 3 -219 8 -39 22 -139 30 -223 8 -83 19 -203 25 -266 15
-152 14 -388 -1 -406 -6 -8 -20 -14 -30 -14 -11 0 -19 -4 -19 -9 0 -5 -8 -11
-17 -15 -10 -3 -47 -21 -82 -40 -35 -20 -67 -33 -71 -31 -10 6 -22 -24 -14
-36 8 -14 20 -11 99 26 41 20 78 35 81 35 4 -1 10 2 13 7 7 9 66 40 520 269
178 91 330 172 337 182 7 9 14 25 14 35 0 9 4 17 9 17 12 0 87 142 146 276 49
112 77 235 120 519 52 351 42 490 -50 699 -14 31 -25 58 -25 61 0 3 -11 22
-24 42 -14 20 -22 41 -19 46 3 6 1 7 -5 3 -7 -4 -12 -3 -12 3 0 6 -9 15 -19
20 -15 9 -22 6 -37 -17z"/>
<path d="M17885 26805 c-44 -7 -97 -15 -119 -19 -21 -3 -70 -18 -110 -31 -39
-14 -75 -27 -81 -28 -5 -2 -46 -21 -90 -42 -69 -33 -101 -53 -150 -94 -21 -18
-87 -96 -115 -136 -17 -24 -38 -51 -47 -61 -10 -10 -18 -20 -18 -23 -1 -3 -6
-15 -12 -26 -5 -11 -18 -69 -28 -130 -22 -135 -17 -275 13 -352 11 -29 18 -53
15 -53 -2 0 3 -7 12 -16 9 -10 14 -25 12 -36 -3 -10 -1 -16 4 -13 5 4 18 -9
29 -27 43 -72 91 -128 109 -128 7 0 10 -3 8 -7 -3 -5 5 -17 16 -28 11 -11 16
-13 12 -5 -5 8 22 -14 59 -50 37 -36 74 -71 81 -78 16 -14 99 -72 183 -127 28
-19 52 -40 52 -45 0 -6 4 -9 8 -6 5 3 19 -4 31 -15 31 -29 100 -58 141 -60 25
-1 19 -4 -25 -10 -145 -21 -195 -33 -338 -81 -134 -45 -158 -50 -212 -45 -33
3 -73 10 -90 17 -16 6 -32 12 -35 12 -3 0 -21 8 -40 18 -20 10 -61 25 -91 34
-31 9 -98 39 -150 67 -52 27 -94 49 -94 48 0 -1 -10 1 -23 5 -12 4 -19 12 -16
18 4 7 2 8 -4 4 -12 -7 -41 5 -64 27 -7 7 -34 25 -60 40 -31 18 -48 35 -48 47
0 10 -5 22 -11 26 -6 3 -9 15 -6 25 3 11 2 17 -2 15 -7 -5 -33 55 -36 84 -1 8
-9 32 -18 54 -10 21 -17 43 -17 49 0 6 -12 49 -26 96 -34 112 -37 110 128 117
55 2 78 9 78 23 0 27 -132 31 -212 5 -17 -5 -20 -3 -15 10 4 9 2 15 -5 13 -11
-2 -36 79 -27 88 3 2 39 5 82 6 81 2 110 16 82 39 -10 9 -44 12 -103 11 l-88
-2 -13 42 c-7 24 -19 53 -28 65 -13 20 -13 22 4 19 10 -2 57 -9 105 -16 48 -7
85 -15 83 -19 -5 -8 44 -12 56 -4 18 10 -12 43 -48 53 -20 6 -80 16 -135 22
-94 12 -99 14 -117 43 -55 88 -125 121 -193 90 -20 -9 -37 -19 -36 -23 0 -3
-5 -20 -12 -37 l-13 -31 -161 0 c-317 -2 -500 -12 -516 -30 -8 -9 -9 -13 -2
-9 6 4 12 2 12 -4 0 -9 85 -10 329 -6 l329 7 12 -51 c7 -28 23 -71 36 -96 l23
-44 -37 -2 c-20 -1 -54 -3 -75 -4 -44 -1 -67 -18 -50 -35 8 -8 43 -10 103 -7
l91 4 50 -54 c33 -36 48 -60 44 -71 -3 -8 -3 -12 1 -8 9 9 35 -13 28 -24 -3
-5 0 -9 5 -9 19 0 12 -15 -12 -26 -51 -24 -197 -103 -217 -117 -18 -13 -19
-16 -5 -27 13 -11 25 -8 73 16 31 16 60 28 65 26 4 -1 7 2 7 7 0 10 68 44 87
44 7 0 10 4 8 8 -3 4 1 9 9 12 20 8 73 -56 102 -121 13 -28 24 -55 25 -60 0
-4 10 -20 22 -37 31 -42 70 -115 61 -115 -4 0 5 -9 20 -21 14 -11 26 -26 26
-32 1 -22 247 -173 297 -183 7 -1 25 -11 40 -21 36 -25 148 -72 187 -80 10 -2
30 -9 45 -17 51 -26 116 -54 144 -60 42 -10 109 -55 101 -68 -4 -7 -3 -8 4 -4
6 4 22 0 34 -7 70 -44 267 -93 506 -127 91 -14 143 -8 377 36 125 24 245 61
293 91 12 7 28 11 34 7 7 -4 8 -3 4 4 -8 13 59 58 101 68 28 6 93 34 144 60
15 8 35 15 45 17 11 2 30 8 44 14 14 6 45 19 70 29 25 10 57 26 71 35 14 10
31 19 38 21 56 14 301 164 301 185 0 6 12 21 26 32 15 12 24 21 20 21 -9 0 30
73 62 117 13 17 23 34 23 37 0 3 10 30 23 58 29 65 82 129 102 121 8 -3 12 -8
9 -12 -2 -4 1 -8 8 -8 22 0 87 -32 87 -42 0 -6 3 -10 8 -9 4 2 33 -10 64 -26
48 -24 60 -27 73 -16 14 11 13 15 -7 28 -28 20 -174 99 -210 115 -28 11 -38
27 -18 27 6 0 9 3 8 8 -4 11 55 92 91 127 31 28 35 29 129 30 79 0 97 3 97 15
0 11 -19 17 -82 23 l-81 9 23 43 c12 24 28 67 35 95 l12 50 342 -5 c235 -4
336 -3 326 4 -8 6 -11 11 -6 11 6 0 6 4 0 10 -10 10 -260 22 -510 23 l-161 0
-13 31 c-7 17 -12 34 -12 37 1 4 -16 14 -36 23 -68 31 -138 -2 -192 -90 -18
-29 -25 -31 -117 -43 -54 -7 -115 -17 -135 -22 -37 -10 -67 -42 -49 -53 12 -8
61 -3 56 5 -3 3 35 12 83 19 48 6 95 14 105 15 17 3 17 1 4 -19 -9 -12 -21
-41 -28 -65 l-13 -42 -88 2 c-91 2 -132 -11 -108 -35 13 -13 13 -13 100 -15
67 -1 70 -2 70 -25 0 -35 -18 -78 -30 -71 -6 4 -7 -1 -3 -11 5 -13 2 -15 -15
-10 -80 26 -212 22 -212 -5 0 -13 46 -30 63 -23 18 6 148 -13 159 -24 6 -6 -1
-42 -16 -94 -14 -46 -26 -89 -26 -95 0 -6 -7 -28 -17 -49 -9 -22 -17 -46 -18
-54 -4 -34 -27 -90 -36 -85 -5 4 -6 -1 -3 -9 3 -8 -2 -25 -10 -38 -9 -14 -13
-27 -10 -30 9 -9 -32 -29 -41 -20 -5 4 -5 2 -1 -5 3 -7 -2 -14 -13 -18 -10 -3
-31 -16 -47 -30 -15 -13 -31 -22 -36 -19 -4 3 -8 0 -8 -6 0 -7 -7 -9 -16 -6
-8 3 -12 2 -9 -3 5 -8 -16 -19 -50 -27 -5 -1 -46 -22 -90 -46 -44 -24 -107
-51 -140 -62 -33 -10 -78 -28 -100 -39 -22 -11 -42 -20 -45 -20 -3 0 -16 -4
-30 -9 -14 -6 -52 -12 -85 -15 -54 -5 -78 0 -212 45 -143 48 -193 60 -338 81
-38 5 -48 9 -27 10 41 1 92 22 135 55 19 14 37 23 40 19 4 -3 7 -1 7 5 0 11
71 64 138 102 15 8 31 20 37 25 6 6 28 23 49 40 21 16 64 56 97 88 32 32 59
56 59 52 0 -3 6 0 14 7 8 7 12 16 9 21 -2 4 1 7 8 7 18 0 66 56 109 128 11 18
24 31 29 27 5 -3 7 3 4 13 -2 11 3 26 12 36 9 9 14 16 12 16 -3 0 4 24 15 53
30 77 35 217 13 352 -10 61 -23 119 -28 130 -6 11 -11 22 -12 25 0 3 -12 19
-27 35 -16 16 -28 34 -28 40 0 5 -17 28 -38 50 -20 23 -48 54 -63 70 -14 17
-38 40 -55 52 -26 21 -184 103 -209 109 -5 2 -41 14 -80 28 -76 27 -80 28
-232 51 -117 17 -120 17 -228 0z"/>
<path d="M15487 26669 c-3 -11 -1 -17 3 -14 5 3 11 1 15 -5 4 -6 71 -10 173
-10 92 0 195 -5 229 -10 57 -10 185 -49 258 -80 17 -7 33 -13 38 -12 4 1 7 -2
7 -6 0 -5 6 -9 13 -9 13 0 168 -91 177 -104 3 -4 41 -24 85 -44 44 -21 82 -40
85 -44 3 -3 11 -7 19 -9 63 -14 71 -14 71 -1 0 24 -14 36 -48 44 -18 3 -30 11
-27 16 4 5 0 7 -7 4 -19 -6 -144 60 -140 74 1 7 -2 10 -7 6 -11 -6 -61 22 -74
42 -5 8 -12 11 -18 8 -5 -4 -9 -1 -9 6 0 7 -3 10 -6 6 -4 -3 -39 12 -79 33
-39 22 -79 40 -88 40 -8 0 -22 6 -29 13 -7 6 -20 13 -28 14 -8 1 -60 14 -115
28 -89 24 -121 27 -297 30 -185 2 -197 1 -201 -16z"/>
<path d="M20135 26679 c-71 -9 -144 -25 -195 -43 -24 -8 -47 -13 -52 -10 -4 3
-8 1 -8 -5 0 -6 -12 -13 -27 -17 -16 -3 -60 -24 -99 -45 -39 -21 -74 -35 -78
-32 -3 4 -6 1 -6 -6 0 -7 -4 -10 -9 -6 -6 3 -13 0 -18 -8 -13 -20 -63 -48 -74
-42 -5 4 -8 1 -7 -6 4 -14 -121 -80 -140 -74 -7 3 -11 1 -7 -4 3 -5 -9 -13
-27 -16 -34 -8 -48 -20 -48 -44 0 -13 8 -13 71 1 8 2 16 6 19 9 3 4 41 23 85
44 44 20 82 40 85 44 9 13 164 104 178 104 6 0 12 4 12 9 0 4 3 7 8 6 4 -1 21
5 37 12 78 33 204 71 264 80 36 5 139 10 228 10 99 0 164 4 168 10 4 6 10 8
15 5 4 -3 6 3 4 12 -5 16 -21 18 -167 18 -89 1 -184 -2 -212 -6z"/>
</g>
</svg>
